<?xml version="1.0" encoding="utf-8"?>
<!-- Generator: Adobe Illustrator 14.0.0, SVG Export Plug-In . SVG Version: 6.00 Build 43363)  -->
<!DOCTYPE svg PUBLIC "-//W3C//DTD SVG 1.1//EN" "http://www.w3.org/Graphics/SVG/1.1/DTD/svg11.dtd">
<svg version="1.1" id="Ebene_1" xmlns="http://www.w3.org/2000/svg" xmlns:xlink="http://www.w3.org/1999/xlink" x="0px" y="0px"
	 width="20.773px" height="20.773px" viewBox="0 0 20.773 20.773" enable-background="new 0 0 20.773 20.773" xml:space="preserve">
<g>
	<path fill="#AB9F9A" d="M10.331,0C4.595,0.03-0.031,4.706,0,10.443c0.03,5.736,4.708,10.361,10.442,10.331
		c5.739-0.031,10.362-4.706,10.331-10.442C20.742,4.594,16.07-0.03,10.331,0z M10.434,19.082c-4.802,0.024-8.711-3.846-8.738-8.648
		C1.671,5.633,5.538,1.718,10.34,1.692s8.716,3.848,8.743,8.647C19.108,15.142,15.235,19.055,10.434,19.082z M11.973,14.932
		L11.93,7.168L9.01,7.185V7.19L7.923,7.194l0.008,1.699l1.088-0.006l0.032,6.062l-1.154,0.005l0.009,1.623l1.154-0.006v0.014
		l2.921-0.018v-0.012l0.953-0.006l-0.009-1.622L11.973,14.932z M10.446,6.022c0.98-0.004,1.57-0.66,1.565-1.466
		C11.986,3.73,11.41,3.1,10.467,3.104C9.527,3.11,8.914,3.747,8.918,4.573C8.923,5.379,9.521,6.029,10.446,6.022z"/>
</g>
</svg>
