<?xml version="1.0" encoding="utf-8"?>
<!-- Generator: Adobe Illustrator 14.0.0, SVG Export Plug-In . SVG Version: 6.00 Build 43363)  -->
<!DOCTYPE svg PUBLIC "-//W3C//DTD SVG 1.1//EN" "http://www.w3.org/Graphics/SVG/1.1/DTD/svg11.dtd">
<svg version="1.1" id="Layer_1" xmlns="http://www.w3.org/2000/svg" xmlns:xlink="http://www.w3.org/1999/xlink" x="0px" y="0px"
	 width="300px" height="300px" viewBox="-126 -125 300 300" enable-background="new -126 -125 300 300" xml:space="preserve">
<rect x="-126" y="-125" fill="#F5F5F5" width="300" height="300"/>
<path fill="#AB9F9A" d="M16.345,39.156c-3.713,0-9.531-14.69-12.345-8.75c-1.171,2.479-3.122,7.734-5,11.951V44c0,2.755,2.236,5,5,5
	h40c2.755,0,5-2.245,5-5v-2.335c-2.821-6.349-6.484-16.892-10-20.946C31.811,12.439,23.22,39.156,16.345,39.156z M49-16H-1
	c-8.284,0-15,6.716-15,15v50c0,8.281,6.716,15,15,15h50c8.28,0,15-6.719,15-15V-1C64-9.284,57.28-16,49-16z M54,49
	c0,2.755-2.245,5-5,5H-1c-2.764,0-5-2.245-5-5V-1c0-2.764,2.236-5,5-5h50c2.755,0,5,2.236,5,5V49z M6.5,14
	c4.144,0,7.5-3.356,7.5-7.5S10.644-1,6.5-1S-1,2.356-1,6.5S2.356,14,6.5,14z"/>
</svg>
