<?xml version="1.0" encoding="utf-8"?>
<!-- Generator: Adobe Illustrator 14.0.0, SVG Export Plug-In . SVG Version: 6.00 Build 43363)  -->
<!DOCTYPE svg PUBLIC "-//W3C//DTD SVG 1.1//EN" "http://www.w3.org/Graphics/SVG/1.1/DTD/svg11.dtd">
<svg version="1.1" id="Capa_1" xmlns="http://www.w3.org/2000/svg" xmlns:xlink="http://www.w3.org/1999/xlink" x="0px" y="0px"
	 width="216px" height="146px" viewBox="0 0 216 146" enable-background="new 0 0 216 146" xml:space="preserve">
<g>
	<path fill="#AB9F9A" d="M163.686,27.743c-4.59-4.589-10.115-6.884-16.58-6.884h-26.069c-0.707,0-1.265,0.175-1.67,0.529
		c-0.408,0.353-0.681,0.883-0.815,1.589c-0.136,0.706-0.217,1.344-0.242,1.914c-0.027,0.57-0.016,1.29,0.041,2.159
		c0.053,0.869,0.08,1.412,0.08,1.63c0.162,0.435,0.219,0.802,0.162,1.1c-0.055,0.298,0.137,0.543,0.57,0.733
		c0.434,0.19,0.65,0.34,0.65,0.448s0.313,0.189,0.938,0.244c0.625,0.055,0.938,0.081,0.938,0.081h1.06h0.896h23.465
		c3.584,0,6.652,1.276,9.205,3.83c2.555,2.553,3.83,5.621,3.83,9.206v57.358c0,3.584-1.275,6.652-3.83,9.205
		c-2.553,2.553-5.621,3.829-9.205,3.829h-26.07c-0.707,0-1.266,0.177-1.67,0.53c-0.408,0.354-0.68,0.882-0.814,1.588
		c-0.137,0.707-0.218,1.346-0.244,1.915c-0.027,0.569-0.015,1.29,0.041,2.159c0.055,0.869,0.082,1.412,0.082,1.629
		c0,0.707,0.256,1.316,0.771,1.834c0.518,0.515,1.127,0.773,1.834,0.773h26.07c6.464,0,11.99-2.295,16.578-6.887
		c4.59-4.589,6.885-10.115,6.885-16.578V44.321C170.57,37.857,168.275,32.331,163.686,27.743z"/>
	<path fill="#AB9F9A" d="M141.895,73c0-1.412-0.518-2.635-1.549-3.667L96.024,25.011c-1.032-1.031-2.253-1.548-3.666-1.548
		s-2.635,0.517-3.667,1.548c-1.032,1.032-1.548,2.255-1.548,3.667v23.464h-36.5c-1.413,0-2.635,0.517-3.667,1.548
		c-1.032,1.032-1.548,2.255-1.548,3.667v31.286c0,1.412,0.516,2.635,1.548,3.666c1.033,1.031,2.255,1.549,3.667,1.549h36.5v23.465
		c0,1.41,0.516,2.635,1.548,3.666c1.033,1.031,2.255,1.548,3.667,1.548s2.634-0.517,3.666-1.548l44.322-44.321
		C141.377,75.635,141.895,74.412,141.895,73z"/>
</g>
</svg>
